<svg width="34" height="34" viewBox="0 0 34 34" fill="none" xmlns="http://www.w3.org/2000/svg">
<path d="M31.1614 1.51514H2.80385C1.83285 1.5157 1.0457 2.28008 1.0459 3.22289V30.7464C1.04648 31.6888 1.83402 32.4528 2.8054 32.4526H18.0729V20.4885H13.9329V15.8056H18.0729V12.3593C18.0729 8.36278 20.5867 6.18748 24.2597 6.18748C26.0191 6.18748 27.5309 6.31475 27.9716 6.37159V10.5486H25.4387C23.4403 10.5486 23.0533 11.4703 23.0533 12.8231V15.8056H27.8315L27.2089 20.4885H23.0533V32.4526H31.1614C32.133 32.4528 32.9207 31.6886 32.9209 30.7456C32.9209 30.7454 32.9209 30.7453 32.9209 30.7449V3.22138C32.9205 2.27894 32.1328 1.51495 31.1614 1.51514Z" fill="#A4341C"/>
</svg>
