<svg width="34" height="34" viewBox="0 0 34 34" fill="none" xmlns="http://www.w3.org/2000/svg">
<g clip-path="url(#clip0)">
<path d="M33.9668 10.2021C33.8871 8.44867 33.595 7.24321 33.1765 6.19867C32.7447 5.08991 32.0806 4.09724 31.2104 3.27203C30.3601 2.43397 29.3306 1.78277 28.2015 1.37029C27.1191 0.964103 25.8836 0.680554 24.077 0.603246C22.257 0.51939 21.6792 0.5 17.0631 0.5C12.4469 0.5 11.8691 0.51939 10.0558 0.596699C8.24929 0.674007 7.00731 0.957807 5.93137 1.36374C4.78875 1.78277 3.766 2.42742 2.91578 3.27203C2.05233 4.09724 1.38165 5.09646 0.956413 6.19237C0.53792 7.24321 0.245779 8.44213 0.166128 10.1955C0.0797311 11.9621 0.0597534 12.5229 0.0597534 17.0032C0.0597534 21.4836 0.0797311 22.0444 0.159382 23.8044C0.239033 25.5578 0.531434 26.7632 0.949926 27.8078C1.38165 28.9165 2.05233 29.9092 2.91578 30.7344C3.766 31.5725 4.79549 32.2237 5.92462 32.6362C7.00731 33.0423 8.24255 33.3259 10.0494 33.4032C11.8624 33.4808 12.4404 33.4999 17.0566 33.4999C21.6727 33.4999 22.2505 33.4808 24.0638 33.4032C25.8704 33.3259 27.1123 33.0423 28.1883 32.6362C30.4733 31.7787 32.2798 30.0253 33.1632 27.8078C33.5815 26.7569 33.8739 25.5578 33.9535 23.8044C34.0332 22.0444 34.0532 21.4836 34.0532 17.0032C34.0532 12.5229 34.0464 11.9621 33.9668 10.2021ZM30.905 23.6754C30.8318 25.2871 30.5529 26.1574 30.3204 26.7375C29.7491 28.1752 28.5736 29.3162 27.0924 29.8707C26.4946 30.0963 25.5915 30.367 23.9375 30.4378C22.1441 30.5153 21.6063 30.5345 17.0698 30.5345C12.5333 30.5345 11.9887 30.5153 10.2019 30.4378C8.54143 30.367 7.64477 30.0963 7.047 29.8707C6.3099 29.6063 5.63897 29.1872 5.09438 28.6393C4.52982 28.1042 4.09809 27.4595 3.82567 26.7441C3.5932 26.1639 3.31429 25.2871 3.24139 23.682C3.16148 21.9414 3.14176 21.4191 3.14176 17.0161C3.14176 12.613 3.16148 12.0844 3.24139 10.3504C3.31429 8.73877 3.5932 7.86848 3.82567 7.28829C4.09809 6.57262 4.52982 5.92167 5.10113 5.39285C5.6522 4.84489 6.31639 4.42586 7.05375 4.1617C7.65152 3.93607 8.55493 3.66537 10.2087 3.59435C12.002 3.51705 12.5401 3.49766 17.0763 3.49766C21.6195 3.49766 22.1574 3.51705 23.9442 3.59435C25.6047 3.66537 26.5013 3.93607 27.0991 4.1617C27.8362 4.42586 28.5072 4.84489 29.0517 5.39285C29.6163 5.92796 30.048 6.57262 30.3204 7.28829C30.5529 7.86848 30.8318 8.74506 30.905 10.3504C30.9846 12.091 31.0046 12.613 31.0046 17.0161C31.0046 21.4191 30.9846 21.9349 30.905 23.6754Z"/>
<path d="M17.063 8.526C12.2412 8.526 8.32892 12.3229 8.32892 17.0032C8.32892 21.6836 12.2412 25.4805 17.063 25.4805C21.8852 25.4805 25.7972 21.6836 25.7972 17.0032C25.7972 12.3229 21.8852 8.526 17.063 8.526ZM17.063 22.5022C13.9349 22.5022 11.3974 20.0397 11.3974 17.0032C11.3974 13.9668 13.9349 11.5043 17.063 11.5043C20.1915 11.5043 22.7287 13.9668 22.7287 17.0032C22.7287 20.0397 20.1915 22.5022 17.063 22.5022Z"/>
<path d="M28.1818 8.19084C28.1818 9.28374 27.2688 10.1699 26.1425 10.1699C25.0165 10.1699 24.1035 9.28374 24.1035 8.19084C24.1035 7.09769 25.0165 6.21179 26.1425 6.21179C27.2688 6.21179 28.1818 7.09769 28.1818 8.19084Z" />
</g>
<defs>
<clipPath id="clip0">
<rect width="34" height="33" fill="white" transform="translate(0 0.5)"/>
</clipPath>
</defs>
</svg>
