<svg width="120" height="50" viewBox="0 0 120 50" fill="none" xmlns="http://www.w3.org/2000/svg">
<g clip-path="url(#clip0)">
<path d="M22.675 21.4413H18.2484V12.398H9.85869V21.4413H5.41241V0.5H9.85869V8.70251H18.2189V0.5H22.675V21.4413Z" fill="#C6D32E"/>
<path d="M37.9461 21.4414L37.0983 19.2612H36.98C36.3817 20.0808 35.5984 20.7504 34.6928 21.2165C33.7211 21.6104 32.6757 21.7937 31.6267 21.7542C30.957 21.7933 30.2863 21.6964 29.6557 21.4694C29.0251 21.2425 28.4479 20.8903 27.9593 20.4344C27.4883 19.9272 27.1265 19.3301 26.896 18.6796C26.6654 18.0291 26.571 17.3388 26.6185 16.6509C26.567 15.925 26.705 15.1981 27.0193 14.5405C27.3336 13.8829 27.8135 13.3167 28.4128 12.8967C30.0632 11.9681 31.9383 11.5049 33.8351 11.5573L36.6349 11.4693V10.7654C36.6799 10.4305 36.6458 10.0897 36.5352 9.77012C36.4247 9.4505 36.2407 9.16074 35.9979 8.92371C35.755 8.68668 35.46 8.50888 35.1359 8.40433C34.8119 8.29977 34.4678 8.27134 34.1308 8.32128C32.5473 8.39696 30.9966 8.79638 29.5761 9.49446L28.117 6.5615C30.0293 5.57918 32.1548 5.07572 34.3083 5.09502C36.0823 4.9771 37.8424 5.47481 39.2869 6.50284C39.8891 7.03165 40.3593 7.69191 40.6604 8.4316C40.9615 9.17128 41.0853 9.9702 41.0221 10.7654V21.4414H37.9461ZM36.6448 14.021L34.9392 14.0797C33.9413 14.0462 32.9529 14.2828 32.0802 14.764C31.7645 14.9794 31.5116 15.2737 31.3472 15.617C31.1828 15.9603 31.1125 16.3405 31.1436 16.7193C31.1436 17.9512 31.8535 18.5671 33.283 18.5671C34.1818 18.6082 35.0606 18.2954 35.7279 17.697C36.0349 17.3953 36.2751 17.0334 36.4329 16.6344C36.5908 16.2354 36.663 15.8082 36.6448 15.3799V14.021Z" fill="#C6D32E"/>
<path d="M60.4634 21.4413H56.0565V12.0852C56.12 11.1759 55.9034 10.269 55.4354 9.48462C55.2051 9.18966 54.9041 8.95645 54.5597 8.8062C54.2154 8.65595 53.8386 8.59342 53.4637 8.62428C52.9496 8.57908 52.4324 8.6681 51.9637 8.88249C51.495 9.09688 51.0911 9.42917 50.792 9.84635C50.1484 11.0985 49.8652 12.5023 49.9737 13.9036V21.4413H45.557V5.38825H48.9189L49.5104 7.43155H49.7568C50.2453 6.66263 50.9518 6.05385 51.7877 5.68155C52.7172 5.26879 53.7272 5.06513 54.7453 5.08518C55.5254 5.03089 56.3083 5.13752 57.0448 5.39834C57.7812 5.65916 58.4551 6.0685 59.024 6.60054C60.0666 7.80887 60.5904 9.37415 60.4831 10.9609L60.4634 21.4413Z" fill="#C6D32E"/>
<path d="M71.8009 18.2444C72.744 18.2147 73.6776 18.0467 74.5711 17.7458V21.0307C73.2907 21.554 71.9134 21.8038 70.5291 21.764C69.8281 21.8282 69.1213 21.7427 68.4564 21.5134C67.7915 21.284 67.1839 20.9161 66.6743 20.4344C65.7914 19.3047 65.3628 17.8903 65.4716 16.4651V8.70253H63.3618V6.85477L65.7871 5.38829L67.0391 2.01538H69.8587V5.38829H74.374V8.70253H69.8784V16.426C69.8593 16.6796 69.8961 16.9343 69.9863 17.1724C70.0766 17.4105 70.2181 17.6262 70.4009 17.8045C70.7994 18.1127 71.2961 18.2688 71.8009 18.2444Z" fill="#C6D32E"/>
<path d="M85.1397 21.7248C84.0324 21.7876 82.9235 21.6315 81.8776 21.2656C80.8317 20.8998 79.8695 20.3314 79.047 19.5936C78.2928 18.7827 77.7132 17.8278 77.3436 16.7873C76.9741 15.7468 76.8224 14.6425 76.8978 13.5419C76.7432 11.3031 77.4475 9.08913 78.8695 7.34355C79.5885 6.59246 80.4633 6.00506 81.4335 5.6219C82.4037 5.23874 83.4462 5.06896 84.489 5.12428C85.4658 5.06861 86.4438 5.21355 87.3615 5.55C88.2793 5.88645 89.1171 6.40719 89.8225 7.07959C90.4721 7.80002 90.9712 8.64098 91.291 9.55385C91.6108 10.4667 91.745 11.4334 91.6858 12.398V14.5195H81.3145C81.2917 15.6029 81.6907 16.6532 82.4285 17.4525C82.8209 17.8214 83.2867 18.105 83.796 18.2851C84.3053 18.4653 84.8469 18.538 85.3861 18.4986C86.3144 18.503 87.2403 18.4046 88.1466 18.2053C89.081 17.9703 89.9893 17.6428 90.8577 17.2276V20.6103C90.0725 20.9966 89.241 21.2824 88.3832 21.4609C87.3143 21.6616 86.2272 21.75 85.1397 21.7248ZM84.5186 8.23322C84.111 8.21157 83.7036 8.27918 83.3253 8.43125C82.9471 8.58332 82.6072 8.81612 82.3299 9.11311C81.7498 9.82171 81.4268 10.7032 81.4131 11.6159H87.5945C87.6369 10.7076 87.3383 9.81588 86.7565 9.11311C86.4688 8.816 86.1201 8.58367 85.734 8.43186C85.3479 8.28005 84.9334 8.21231 84.5186 8.23322Z" fill="#C6D32E"/>
<path d="M104.325 5.12423C104.821 5.11884 105.316 5.16141 105.803 5.25133L105.488 9.3477C105.061 9.25014 104.624 9.20418 104.187 9.21083C102.992 9.13261 101.812 9.5143 100.894 10.2765C100.492 10.6658 100.178 11.1359 99.974 11.6552C99.77 12.1745 99.6802 12.7311 99.7108 13.2876V21.4413H95.304V5.3882H98.6461L99.2968 8.07675H99.5137C100.007 7.21385 100.704 6.4825 101.545 5.94546C102.369 5.40466 103.336 5.11883 104.325 5.12423Z" fill="#C6D32E"/>
<path d="M120 16.6802C120.046 17.3955 119.916 18.1112 119.621 18.7654C119.325 19.4196 118.873 19.9924 118.304 20.4344C116.769 21.4011 114.962 21.8535 113.148 21.7249C112.157 21.736 111.167 21.6575 110.191 21.4902C109.392 21.3416 108.612 21.1089 107.864 20.7961V17.1886C108.755 17.5983 109.682 17.9255 110.634 18.1662C111.516 18.401 112.423 18.529 113.336 18.5475C114.933 18.5475 115.731 18.088 115.731 17.1788C115.74 17.0247 115.716 16.8705 115.662 16.7258C115.607 16.5812 115.524 16.4492 115.416 16.338C115.09 16.041 114.721 15.7939 114.321 15.6048C113.799 15.331 113.109 15.0182 112.241 14.6271C111.251 14.268 110.307 13.792 109.432 13.2095C108.889 12.8219 108.455 12.3038 108.17 11.7039C107.883 11.0406 107.745 10.3234 107.765 9.60196C107.737 8.95614 107.875 8.31381 108.167 7.73562C108.458 7.15743 108.893 6.66247 109.432 6.29749C110.85 5.43377 112.502 5.02415 114.164 5.12431C116.122 5.12426 118.056 5.54799 119.832 6.36593L118.502 9.53353C117.761 9.21525 117.004 8.93463 116.234 8.69275C115.542 8.45669 114.817 8.33129 114.085 8.32124C112.783 8.32124 112.113 8.67319 112.113 9.36733C112.128 9.56938 112.194 9.76452 112.304 9.93518C112.414 10.1058 112.565 10.2467 112.744 10.345C113.621 10.852 114.541 11.2806 115.495 11.6257C116.492 12.003 117.436 12.5057 118.304 13.1215C118.859 13.5104 119.307 14.0315 119.606 14.6369C119.89 15.2799 120.025 15.9783 120 16.6802Z" fill="#C6D32E"/>
<path d="M15.074 34.317C15.1346 35.2824 14.9746 36.249 14.6059 37.1445C14.2371 38.04 13.6692 38.8414 12.9445 39.4888C11.2099 40.7813 9.06632 41.4159 6.9011 41.2779H4.92936V48.7178H0.49295V27.7863H7.2363C9.31658 27.6456 11.3819 28.2224 13.0825 29.419C13.7696 30.0303 14.3064 30.7897 14.6516 31.6387C14.9968 32.4878 15.1413 33.404 15.074 34.317ZM4.92936 37.6508H6.40817C7.49905 37.7272 8.58459 37.4418 9.49394 36.8393C9.83185 36.5498 10.0969 36.186 10.2681 35.777C10.4392 35.3679 10.5117 34.9249 10.4798 34.4832C10.5138 34.06 10.4546 33.6345 10.3066 33.2361C10.1585 32.8378 9.92494 32.476 9.6221 32.1759C8.84368 31.6165 7.88861 31.3529 6.93068 31.4329H4.92936V37.6508Z" stroke="#A4341C" stroke-miterlimit="10"/>
<path d="M22.2313 48.7178H18.7315V25.6061H22.2412L22.2313 48.7178Z" stroke="#A4341C" stroke-miterlimit="10"/>
<path d="M37.9954 48.718L37.1476 46.5476H37.0293C36.4281 47.3645 35.6455 48.0335 34.7421 48.5029C33.7693 48.893 32.7247 49.0762 31.676 49.0406C31.0063 49.0796 30.3356 48.9827 29.705 48.7558C29.0744 48.5288 28.4972 48.1766 28.0086 47.7207C27.5431 47.2162 27.1852 46.6236 26.9565 45.9784C26.7278 45.3333 26.6329 44.649 26.6777 43.9666C26.6777 42.2654 26.0664 16.4945 27.1016 14.2654C28.1367 12.0364 31.4788 11.6062 33.8942 11.528L36.6941 11.44V10.7361C36.7344 10.4025 36.6964 10.0641 36.5831 9.74747C36.4698 9.43081 36.2842 9.1444 36.0408 8.91062C35.7975 8.67684 35.5029 8.50201 35.1801 8.39979C34.8573 8.29756 34.5151 8.2707 34.1801 8.3213C32.5999 8.39047 31.0518 8.78676 29.6353 9.48471L28.1762 6.55175C30.0859 5.57438 32.2087 5.0775 34.3576 5.10482C36.1133 5.00032 37.8524 5.49355 39.2869 6.50287C39.8887 7.03413 40.3585 7.6962 40.6595 8.43735C40.9605 9.17849 41.0846 9.97863 41.0221 10.7752V48.718H37.9954ZM36.6941 13.8646L34.9984 13.9233C33.7168 13.9233 31.5084 14.5196 31.3408 16.1425C31.1732 17.7654 31.1929 43.1062 31.1929 43.9666C31.162 44.2414 31.1988 44.5196 31.3001 44.7774C31.4014 45.0351 31.5642 45.2646 31.7745 45.4462C31.9848 45.6279 32.2364 45.7563 32.5077 45.8204C32.779 45.8845 33.062 45.8824 33.3323 45.8143C34.7421 45.6677 35.3829 45.6774 35.7772 44.9442C36.4772 43.6537 36.6941 16.1425 36.6941 15.1649V13.8646Z" stroke="#A4341C" stroke-miterlimit="10"/>
<path d="M60.5127 49.0112H56.1058V11.9972C56.1693 11.088 55.9527 10.1811 55.4847 9.39667C55.2549 9.1006 54.9542 8.866 54.6099 8.71408C54.2657 8.56216 53.8887 8.49771 53.513 8.52656C52.9979 8.48243 52.4802 8.57294 52.0114 8.78908C51.5427 9.00522 51.1392 9.33944 50.8413 9.75841C50.1967 11.0102 49.9135 12.4143 50.023 13.8157V49.0112H45.6063V5.38829H48.9681L49.5695 7.3436H49.8061C50.2946 6.57468 51.0011 5.9659 51.837 5.5936C52.7664 5.18084 53.7765 4.97718 54.7946 4.99723C55.5736 4.94896 56.3542 5.06131 57.0873 5.32717C57.8203 5.59303 58.4898 6.00665 59.0536 6.54192C60.099 7.74868 60.6232 9.31513 60.5127 10.9023V49.0112Z" stroke="#A4341C" stroke-miterlimit="10"/>
<path d="M71.8502 45.5308C72.7943 45.5019 73.7285 45.3304 74.6205 45.0224V48.278C73.34 48.8012 71.9627 49.0511 70.5784 49.0112C69.8774 49.0754 69.1707 48.99 68.5058 48.7606C67.8409 48.5313 67.2332 48.1633 66.7237 47.6816C65.8424 46.5511 65.414 45.1373 65.5209 43.7123L65.6294 8.88832H63.5196V7.04056L65.9448 5.58385L67.2166 2.20117H69.9968V5.61318H74.512V8.88832H69.9968L69.9277 43.7123C69.9073 43.9646 69.9436 44.2182 70.034 44.4549C70.1243 44.6916 70.2665 44.9054 70.4503 45.0811C70.8452 45.3967 71.3436 45.5569 71.8502 45.5308V45.5308Z" stroke="#A4341C" stroke-miterlimit="10"/>
<path d="M89.1522 43.9665C89.1934 44.6841 89.0579 45.4009 88.7573 46.055C88.4567 46.7091 88.0001 47.2808 87.4269 47.7207C85.8875 48.6856 84.0776 49.1378 82.261 49.0112C81.27 49.0219 80.28 48.9434 79.3033 48.7766C78.4782 48.6287 77.6717 48.3927 76.8978 48.0727V44.4944C77.7872 44.9085 78.715 45.2359 79.6681 45.4721C80.5515 45.7156 81.4625 45.847 82.3793 45.8632C83.9764 45.8632 84.7749 45.4037 84.7749 44.4847C84.7803 44.3324 84.7552 44.1805 84.701 44.0379C84.6469 43.8952 84.5648 43.7646 84.4594 43.6537C84.1278 43.3593 83.7561 43.1125 83.3553 42.9204C82.8328 42.6467 82.1427 42.3338 81.2751 41.9428C80.3198 41.5647 79.4131 41.0757 78.5738 40.4861C78.0319 40.0951 77.5952 39.5781 77.302 38.9805C77.0161 38.3169 76.8782 37.5999 76.8978 36.8785C76.8715 36.2319 77.0115 35.5894 77.3047 35.0113C77.5979 34.4332 78.0346 33.9386 78.5738 33.5741C79.9913 32.7175 81.6392 32.3115 83.2961 32.4106C85.2593 32.4131 87.198 32.8436 88.9747 33.6718L87.6438 36.8199C86.9035 36.5 86.1466 36.2194 85.3763 35.9791C84.6794 35.7729 83.9541 35.6772 83.2271 35.6956C81.9258 35.6956 81.2554 36.0475 81.2554 36.7417C81.2723 36.9433 81.3386 37.1377 81.4485 37.3081C81.5585 37.4785 81.7088 37.6197 81.8863 37.7193C82.7629 38.2238 83.6835 38.6492 84.6369 38.9903C85.6157 39.3479 86.5461 39.824 87.4072 40.4079C87.9664 40.7977 88.4201 41.3181 88.7283 41.9232C89.0277 42.5624 89.1729 43.262 89.1522 43.9665V43.9665Z" stroke="#A4341C" stroke-miterlimit="10"/>
</g>
<defs>
<clipPath id="clip0">
<rect width="120" height="49" fill="white" transform="translate(0 0.5)"/>
</clipPath>
</defs>
</svg>
