<svg width="40" height="41" viewBox="0 0 40 41" fill="none" xmlns="http://www.w3.org/2000/svg">
<path d="M37.9578 11.1271C37.5256 9.52058 36.259 8.25418 34.6527 7.82159C31.7182 7.01868 19.98 7.01868 19.98 7.01868C19.98 7.01868 8.24226 7.01868 5.30777 7.79115C3.73238 8.22328 2.43484 9.52081 2.00272 11.1271C1.23047 14.0614 1.23047 20.1467 1.23047 20.1467C1.23047 20.1467 1.23047 26.2626 2.00272 29.1662C2.4353 30.7725 3.70148 32.0389 5.308 32.4715C8.27316 33.2746 19.9805 33.2746 19.9805 33.2746C19.9805 33.2746 31.7182 33.2746 34.6527 32.5021C36.2592 32.0698 37.5256 30.8034 37.9582 29.1971C38.7302 26.2626 38.7302 20.1776 38.7302 20.1776C38.7302 20.1776 38.7611 14.0614 37.9578 11.1271ZM16.2428 25.7684V14.5249L26.0037 20.1467L16.2428 25.7684Z" fill="#A4341C"/>
</svg>
